<?xml version="1.0" encoding="utf-8"?>
<!-- Generator: Adobe Illustrator 18.0.0, SVG Export Plug-In . SVG Version: 6.00 Build 0)  -->
<!DOCTYPE svg PUBLIC "-//W3C//DTD SVG 1.1//EN" "http://www.w3.org/Graphics/SVG/1.1/DTD/svg11.dtd">
<svg version="1.1" id="Livello_1" xmlns="http://www.w3.org/2000/svg" xmlns:xlink="http://www.w3.org/1999/xlink" x="0px" y="0px"
	 viewBox="0 0 100 100" enable-background="new 0 0 100 100" xml:space="preserve">
<polygon fill="#E5CE42" stroke="#E5CE42" stroke-miterlimit="10" points="93.5,89.9 87.5,96.1 71,80.3 77,74.1 "/>
<path fill="#E5CE42" stroke="#E5CE42" stroke-miterlimit="10" d="M87.1,96.8l7.1-7.2l0,0c1.2,1.1,1.3,2.8,0.3,3.7L91,97
	C89.8,97.9,88.2,97.8,87.1,96.8L87.1,96.8z"/>
<path fill="#E5CE42" stroke="#E5CE42" stroke-miterlimit="10" d="M64.3,74.9L7.2,29.1c-1.7-1.4-2.7-3.4-2.8-5.6L3.8,3.2l4.7,4.5
	l62.8,60"/>
<path fill="#E5CE41" stroke="#E5CE42" stroke-miterlimit="10" d="M60.4,78.9l13.3-13.7c0.8-0.8,1.3-1.7,1.6-2.8l2.8-10.2
	c0.6-2.1,0-4.4-1.6-6l-5.8-5.6c-1.1-1.1-2.7-1.6-4.2-1.5L59.1,40l9.5-5.9c1.3-0.8,3.1-0.8,4.4,0l10.8,7c1.6,1,2.6,2.8,2.7,4.7
	l0.4,14.7c0.1,2.1-0.7,4.2-2.2,5.7L69.8,81.5c-1.1,1.1-2.6,1.6-4.1,1.3l-7.6-1.5L60.4,78.9z"/>
<polygon fill="#E5CE42" stroke="#E5CE42" stroke-miterlimit="10" points="22.1,74.1 28,80.3 11.5,96.1 5.5,89.9 "/>
<path fill="#E5CE42" stroke="#E5CE42" stroke-miterlimit="10" d="M11.9,96.8c-1.1,1-2.7,1.1-3.9,0.2l-3.5-3.7
	c-0.9-0.9-0.8-2.6,0.3-3.7l0,0L11.9,96.8L11.9,96.8z"/>
<path fill="#E5CE42" stroke="#E5CE42" stroke-miterlimit="10" d="M27.8,67.6l62.8-60l4.7-4.5l-0.6,20.4c-0.1,2.2-1.1,4.2-2.8,5.6
	L34.8,74.9"/>
<path fill="#E5CE41" stroke="#E5CE42" stroke-miterlimit="10" d="M38.6,78.9L25.4,65.3c-0.8-0.8-1.3-1.7-1.6-2.8l-2.8-10.2
	c-0.6-2.1,0-4.4,1.6-6l5.8-5.6c1.1-1.1,2.7-1.6,4.2-1.5l7.3,0.6L30.4,34c-1.3-0.8-3.1-0.8-4.4,0l-10.8,7c-1.6,1-2.6,2.8-2.7,4.7
	l-0.4,14.7c-0.1,2.1,0.7,4.2,2.2,5.7l14.9,15.3c1.1,1.1,2.6,1.6,4.1,1.3l7.6-1.5L38.6,78.9z"/>
</svg>
