<?xml version="1.0" encoding="utf-8"?>
<!-- Generator: Adobe Illustrator 18.0.0, SVG Export Plug-In . SVG Version: 6.00 Build 0)  -->
<!DOCTYPE svg PUBLIC "-//W3C//DTD SVG 1.1//EN" "http://www.w3.org/Graphics/SVG/1.1/DTD/svg11.dtd">
<svg version="1.1" id="Livello_1" xmlns="http://www.w3.org/2000/svg" xmlns:xlink="http://www.w3.org/1999/xlink" x="0px" y="0px"
	 viewBox="0 0 100 100" enable-background="new 0 0 100 100" xml:space="preserve">
<rect x="74.5" y="73.1" transform="matrix(-0.7339 0.6793 -0.6793 -0.7339 192.6742 91.5269)" fill="#992D15" stroke="#992D15" stroke-miterlimit="10" width="7.8" height="20.8"/>
<path fill="#992D15" stroke="#992D15" stroke-miterlimit="10" d="M82.2,94.4l6.8-6.2l0,0c1,1.1,1,2.6,0.1,3.4l-3.4,3.2
	C84.6,95.5,83.1,95.4,82.2,94.4L82.2,94.4z"/>
<path fill="#992D15" stroke="#992D15" stroke-miterlimit="10" d="M68.6,78.4c-5.2,4.7-11.5,6.7-19,6c-0.9-0.1-1.8-0.6-2.5-1.4
	L45,80.7c-0.8-0.8-0.5-2,0.5-2c6.9,0.4,12.9-1.6,17.9-6.1l5.7-5.3c4.8-4.6,7.3-10.4,7.5-17.4c0.1-1,1.2-1.2,2-0.3l2.2,2.4
	c0.7,0.7,1.1,1.7,1.2,2.6c0.1,7.5-2.4,13.6-7.5,18.5"/>
<polyline fill="#992D15" stroke="#992D15" stroke-miterlimit="10" points="62.7,73.3 8.8,15.1 5.5,4.7 15.8,9.1 69.4,67 "/>
</svg>
