<?xml version="1.0" encoding="utf-8"?>
<!-- Generator: Adobe Illustrator 18.0.0, SVG Export Plug-In . SVG Version: 6.00 Build 0)  -->
<!DOCTYPE svg PUBLIC "-//W3C//DTD SVG 1.1//EN" "http://www.w3.org/Graphics/SVG/1.1/DTD/svg11.dtd">
<svg version="1.1" id="Livello_1" xmlns="http://www.w3.org/2000/svg" xmlns:xlink="http://www.w3.org/1999/xlink" x="0px" y="0px"
	 viewBox="0 0 100 100" enable-background="new 0 0 100 100" xml:space="preserve">
<path fill="#74B7E5" stroke="#73B8E6" stroke-miterlimit="10" d="M89.7,95.3l5.8-6.1c-16.6-12.7-31.8-27.5-45.9-44
	c-0.6,0.6-1.6,0.5-2.3-0.1L43.6,49c0.7,0.7,0.8,1.7,0.2,2.3L89.7,95.3z"/>
<path fill="#74B7E5" stroke="#73B8E6" stroke-miterlimit="10" d="M89.8,95.6l5.8-6.1c1.1-0.1,1.7,0.4,1.6,1.5l-5.8,6.1
	C90.3,97.1,89.8,96.6,89.8,95.6z"/>
<circle fill="#74B7E5" stroke="#73B8E6" stroke-miterlimit="10" cx="37.3" cy="39.7" r="9"/>
<path fill="#74B7E5" stroke="#73B8E6" stroke-miterlimit="10" d="M29.5,30.5c-0.9,0.6-1.8,1-2.8,1.1c-4,0.6-10.7-5.9-10.4-10
	c0.5-6.5-8.5-15.8-8.5-15.8c3.2,5.6,11.3,9.1,14.4,11.7c2.8,2.4,4.5,5.4,4.6,7.7C27,26.5,27.9,28.4,29.5,30.5z"/>
<path fill="#74B7E5" stroke="#73B8E6" stroke-miterlimit="10" d="M24.4,40.8c0,0-7-5.8-7.9-3.8c-1,2-4.3-2.1-4.3-2.1
	c-3-2.1-7.3-4.5-7.5-9.7l-0.4,7.3c-0.6,1.5,0.2,3.6,1.8,5.2c0,0,6.9,3.9,6.7,6.4c-0.2,2.5,8.4-4.1,12.6-1.3L24.4,40.8z"/>
<path fill="#74B7E5" stroke="#73B8E6" stroke-miterlimit="10" d="M41.8,28.7c-1.7-4.8,6.8-11.5,4.4-11.9c-2.5-0.4-4.6-8.1-4.6-8.1
	c-1.2-1.9-3-3.2-4.6-3l-7.2-1.4c5,1.5,6.3,6.2,7.6,9.7c0,0,3.2,4.2,1,4.7c-2.2,0.4,1.7,8.6,1.7,8.6L41.8,28.7z"/>
<path fill="#74B7E5" stroke="#73B8E6" stroke-miterlimit="10" d="M45.5,8.8"/>
<path fill="#74B7E5" stroke="#73B8E6" stroke-miterlimit="10" d="M39.2,17.8"/>
<path fill="#74B7E5" stroke="#73B8E6" stroke-miterlimit="10" d="M49.2,31.2l1.5-7.6c0.1-0.6,0.4-1.2,0.7-1.7L59.2,11
	c-1.8,2.7-3.5,5.8-4.1,15.4c-0.2,0.9-0.8,1.7-1.5,2.2l-3.7,2.8C49.6,31.8,49.1,31.6,49.2,31.2z"/>
<path fill="#74B7E5" stroke="#73B8E6" stroke-miterlimit="10" d="M26.6,48.7l-7.2,2.9c-0.8,0.5-1.7,0.7-2.6,0.7H2.9l8,4.9
	c0.9,0.5,1.9,0.8,2.9,0.7l9-0.6c1.3-0.1,2.5-0.8,3.1-2c2.7-2.5,3.2-4.2,3.1-5.7L26.6,48.7z"/>
<path fill="#74B7E5" stroke="#73B8E6" stroke-miterlimit="10" d="M35.3,51.7l-2.6,4.8c-0.5,1-0.6,2.1-0.3,3.1l2.1,7
	c0,0.1,0,0.1,0,0.2v2.7l2.4-6.3c0.3-0.7,0.4-1.4,0.3-2.2l-0.7-7.7"/>
<path fill="#74B7E5" stroke="#73B8E6" stroke-miterlimit="10" d="M51.3,38.4l3.5-2.8c0.5-0.4,1.2-0.6,1.8-0.5L67,36.7l-12.3,1.8
	L51.3,38.4L51.3,38.4z"/>
</svg>
